PathFileType	4	(X/Y/Z)	pose_F01_0-91.trc
DataRate	CameraRate	NumFrames	NumMarkers	Units	OrigDataRate	OrigDataStartFrame	OrigNumFrames
30	30	5	21	m	30	22	91
Frame#	Time	CHip			RHip			RKnee			RAnkle			RBigToe			RSmallToe			RHeel			LHip			LKnee			LAnkle			LBigToe			LSmallToe			LHeel			Neck			Nose			RShoulder			RElbow			RWrist			LShoulder			LElbow			LWrist			
		X1	Y1	Z1	X2	Y2	Z2	X3	Y3	Z3	X4	Y4	Z4	X5	Y5	Z5	X6	Y6	Z6	X7	Y7	Z7	X8	Y8	Z8	X9	Y9	Z9	X10	Y10	Z10	X11	Y11	Z11	X12	Y12	Z12	X13	Y13	Z13	X14	Y14	Z14	X15	Y15	Z15	X16	Y16	Z16	X17	Y17	Z17	X18	Y18	Z18	X19	Y19	Z19	X20	Y20	Z20	X21	Y21	Z21	
22	0.7333333333333333	-0.17465847220511013	1.8809354077093607	-0.6148840441134548	-0.18791473629635297	1.879191538181805	-0.5534325565653492	-0.17787260128205548	1.7412191079162742	-0.5509462002802673	-0.17567825480121543	1.599002316021283	-0.5397040397530892	-0.2081005529055602	1.5614584613280929	-0.5144656523497992	-0.2026620614185333	1.5681262275060261	-0.4898273570518805	-0.17270955646787475	1.5897179886028938	-0.546025094132249	-0.16197595915709317	1.882837353951078	-0.6823154939964571	-0.15213287680041446	1.7387877086128232	-0.6596354462988403	-0.1592733628371639	1.5966296600291294	-0.6261569079211489	-0.18557719103758305	1.5532389181814983	-0.6108320275201232	-0.17786698407828141	1.5585980411502736	-0.6403933749551962	-0.1544617284874865	1.5854075527474099	-0.6167893343928557	-0.16348916967232377	2.0496984789704307	-0.6462049400789465	-0.18502478491340985	2.115479052609411	-0.6309199871583241	-0.1831724008001299	2.0445077973354158	-0.5514124687390921	-0.18282294271980523	1.95901442914654	-0.5185741958969542	-0.19551395234278537	1.8869926049056465	-0.4803866104627294	-0.1432210581929503	2.0541168339331883	-0.7385208717299702	-0.13917776210521446	1.965227385894572	-0.7579825213993708	-0.1435680804123309	1.8850395434826728	-0.7539396925828818
23	0.7666666666666667	-0.17275794268222125	1.8797982943153075	-0.6168795424130511	-0.18714847562958836	1.8779080471553968	-0.5500470147736923	-0.17769829877127977	1.7399040693332117	-0.5508920469113749	-0.17535334115724685	1.6031184645317307	-0.5407298780495918	-0.20713364516086696	1.561373119394503	-0.5112336283643718	-0.2025756944516555	1.5677830506852437	-0.489792321381011	-0.17063052676438067	1.5923986812110769	-0.5486338691936932	-0.15994381581596245	1.8817262670360164	-0.6845082262076577	-0.15434240155587747	1.7400233158003124	-0.6574974854893911	-0.1590754861814724	1.598141794299724	-0.6267494428254264	-0.1844428764401676	1.554558842725017	-0.6082076457742659	-0.17763724926520394	1.560043370731906	-0.6410006157289682	-0.15456531441879576	1.5857790603347497	-0.6168587053896037	-0.163473549089875	2.0496353892934804	-0.6461717743765288	-0.18501814607994171	2.115481176438104	-0.6309099995450669	-0.18317784703163964	2.0444395279552525	-0.5513057303444381	-0.1808554544269626	1.9605595690510425	-0.5210891037394152	-0.19484414900276661	1.8871492630906845	-0.4771862572430606	-0.1431848753741205	2.0541183330093893	-0.7385529318458314	-0.1371263260155454	1.963914111573352	-0.7602144673814618	-0.1427597975737162	1.88491942032762	-0.7510151501103356
24	0.8	-0.17276306686354756	1.879869101105098	-0.6169179869141708	-0.18722505824729743	1.8793916544068996	-0.5503621164841832	-0.1779638669064551	1.7426090855576473	-0.550942875154071	-0.17575405707340888	1.6030305097605853	-0.5400458812411263	-0.2060441655568209	1.5615869717650472	-0.5168428152399887	-0.20333876127680933	1.5694784264537607	-0.493804290574165	-0.17063850634943337	1.5924396082415284	-0.5486249208723126	-0.16074727765504435	1.8818482505790008	-0.6875253840589988	-0.15228855375321515	1.7403054245242748	-0.6595942327984836	-0.1592823452652843	1.5967394374250248	-0.6261369473386498	-0.18536597786011122	1.5545198161853013	-0.6114093067027042	-0.17789438551005568	1.5586965231250098	-0.6404306749881882	-0.15448561367426472	1.5855727618834181	-0.6168216106171089	-0.1635482201858771	2.0485503271948664	-0.6462914638006886	-0.1850819598278748	2.1154436398141314	-0.6309112141129526	-0.18312932148644837	2.044433856199258	-0.5513427997005713	-0.18188007305634377	1.9593609842856199	-0.5242692445312237	-0.1979789962706686	1.8888173569760498	-0.4787056463110247	-0.14320418281979697	2.054075247903958	-0.7385768956316858	-0.13639198184848628	1.9638193286668577	-0.757337993776108	-0.143546659221562	1.8850188405622268	-0.7539674352228304
25	0.8333333333333334	-0.17478065452841737	1.8783479696941396	-0.6143430808780833	-0.1890093624117067	1.8775830469149886	-0.5476638726906083	-0.17922379987833095	1.7409383993339884	-0.5493298373405258	-0.17328706804918256	1.605990308028569	-0.5432385905921188	-0.20926007235752264	1.5627268824531317	-0.5176670716749063	-0.20332234804048482	1.5691156544007383	-0.49381251315234553	-0.16958496342212157	1.5951647210351567	-0.5457917692953228	-0.1620861582672922	1.8802585939387864	-0.6819182291668264	-0.1546987003940559	1.7386188586879359	-0.6608846202559033	-0.15922143552590748	1.5994533557639328	-0.6265301968569305	-0.1855529687646997	1.5532550743708298	-0.6108571149772455	-0.17807438688367763	1.5601196428036699	-0.6402294921723298	-0.1535556630270431	1.588239231862061	-0.6139765699132569	-0.16557791652224163	2.0485097741977274	-0.6441032251690452	-0.18508358466153693	2.1154354905926573	-0.6308727125633582	-0.18319644078642885	2.0444014527547014	-0.5512751174214625	-0.18477296424095382	1.9589353131716412	-0.5162862091631343	-0.19751309105333945	1.8840652762047614	-0.47774695501202835	-0.14319698424884797	2.0541622854929273	-0.7385403952358114	-0.13933085696544387	1.963795348278373	-0.7579402702354187	-0.14283509403025535	1.8849484267009722	-0.7509447429756257
26	0.8666666666666667	-0.1729224346103008	1.8785698271403766	-0.6168206117725892	-0.18731373149389796	1.8767535563964357	-0.5500006697472386	-0.17537440829531314	1.7371277032195491	-0.5530403472056653	-0.1760763903922361	1.598885633897821	-0.5438850264074043	-0.20704363457740277	1.561131266932519	-0.5112607716367887	-0.202494228815791	1.5673784267205482	-0.48980424673668405	-0.1714191796578624	1.591147282744966	-0.5522122783912239	-0.16081631053799486	1.879231396197045	-0.6872299517540684	-0.15511149536366045	1.7360355074770366	-0.6601920902804501	-0.15929970899399945	1.5967688663377462	-0.626149793931184	-0.18586136992137367	1.5546530148104982	-0.6106699837215104	-0.17813626929858745	1.5601356298173799	-0.6402209120427509	-0.15363005018393708	1.585692997571664	-0.6136352270870047	-0.16345534915302629	2.0496423903884784	-0.6462516467027971	-0.18503528027616453	2.115455953166186	-0.6310487132012265	-0.18319843323360688	2.0444280720533397	-0.5513761140821726	-0.18579859146961514	1.9580786185222132	-0.5193324368556907	-0.19596138407846167	1.88343719557996	-0.47985253503912545	-0.14101313338375826	2.0541308974827057	-0.7408515455605893	-0.1371170700611004	1.9625055405537757	-0.7599459753529405	-0.14569634712510512	1.8832985037547152	-0.751433910673931
